<svg xmlns="http://www.w3.org/2000/svg" version="1.1" xmlns:xlink="http://www.w3.org/1999/xlink" xmlns:svgjs="http://svgjs.com/svgjs" width="1440" height="560" preserveAspectRatio="none" viewBox="0 0 1440 560"><g mask="url(&quot;#SvgjsMask1000&quot;)" fill="none"><rect width="1440" height="560" x="0" y="0" fill="#0e2a47"></rect><path d="M1016.4 228.24a24.61 24.61 0 1 0 7.8 48.6z" stroke="#037b0b"></path><path d="M379.72 28.98 a54.19 54.19 0 1 0 108.38 0 a54.19 54.19 0 1 0 -108.38 0z" stroke="#e73635"></path><path d="M116.32 149.68L130.7 149.68L130.7 160.57L116.32 160.57z" stroke="#e73635"></path><path d="M510.64 138.49L541.82 138.49L541.82 169.67L510.64 169.67z" fill="#e73635"></path><path d="M616.52 161.62L628.66 161.62L628.66 173.76L616.52 173.76z" stroke="#d3b714"></path><path d="M683.53 547.83L707.65 547.83L707.65 571.95L683.53 571.95z" fill="#e73635"></path><path d="M1235.59 64.93L1268.57 64.93L1268.57 97.91L1235.59 97.91z" stroke="#037b0b"></path><path d="M881.71 83.83L920.91 83.83L920.91 105.25L881.71 105.25z" fill="#d3b714"></path><path d="M445.65 217.06a6.51 6.51 0 1 0-10.43 7.8z" fill="#d3b714"></path><path d="M1338.86 556.06 a23.29 23.29 0 1 0 46.58 0 a23.29 23.29 0 1 0 -46.58 0z" fill="#037b0b"></path><path d="M1395.55 414.97a45.09 45.09 0 1 0 83.29 34.56z" fill="#e73635"></path><path d="M706.17 69.77a39.11 39.11 0 1 0 28.19 72.96z" fill="#037b0b"></path><path d="M189.47 112.69L199.6 112.69L199.6 132.22L189.47 132.22z" fill="#037b0b"></path><path d="M496.03 524.37 a43.39 43.39 0 1 0 86.78 0 a43.39 43.39 0 1 0 -86.78 0z" fill="#e73635"></path><path d="M1362.94 390.97 a7.49 7.49 0 1 0 14.98 0 a7.49 7.49 0 1 0 -14.98 0z" fill="#037b0b"></path><path d="M1406.07 538.14a20.83 20.83 0 1 0 41.18-6.29z" fill="#d3b714"></path><path d="M332.89 437.6 a54.84 54.84 0 1 0 109.68 0 a54.84 54.84 0 1 0 -109.68 0z" fill="#d3b714"></path><path d="M1033.28 435.37L1080.27 435.37L1080.27 482.36L1033.28 482.36z" stroke="#037b0b"></path><path d="M1.93 159.47a55.66 55.66 0 1 0 48.43-100.23z" fill="#d3b714"></path><path d="M364.74 109.49a39.17 39.17 0 1 0-75.05-22.44z" fill="#e73635"></path><path d="M72.69 169.85a23.37 23.37 0 1 0-37.97 27.27z" fill="#e73635"></path><path d="M1043.44 497.47a19.07 19.07 0 1 0 35.26 14.52z" fill="#d3b714"></path><path d="M163.26 178.96 a55.41 55.41 0 1 0 110.82 0 a55.41 55.41 0 1 0 -110.82 0z" stroke="#e73635"></path><path d="M1357.19 335.81 a30.29 30.29 0 1 0 60.58 0 a30.29 30.29 0 1 0 -60.58 0z" fill="#e73635"></path><path d="M1117.3 348.37a13.36 13.36 0 1 0 22.16 14.93z" stroke="#037b0b"></path><path d="M87.22 172.07L115.92 172.07L115.92 200.77L87.22 200.77z" stroke="#037b0b"></path><path d="M1208.16 147.51L1210.9 147.51L1210.9 150.25L1208.16 150.25z" stroke="#e73635"></path><path d="M375.1 126.7 a18.81 18.81 0 1 0 37.62 0 a18.81 18.81 0 1 0 -37.62 0z" fill="#037b0b"></path><path d="M831.52 402.02L842.84 402.02L842.84 413.34L831.52 413.34z" stroke="#037b0b"></path><path d="M887.43 149.55a41.2 41.2 0 1 0 55.48-60.92z" fill="#e73635"></path><path d="M557.05 262.67L560.04 262.67L560.04 285.61L557.05 285.61z" fill="#d3b714"></path><path d="M455.46 52.2a39.27 39.27 0 1 0-74.76-24.07z" fill="#d3b714"></path><path d="M1164.76 354.88a24.24 24.24 0 1 0 25.23-41.39z" fill="#d3b714"></path></g><defs><mask id="SvgjsMask1000"><rect width="1440" height="560" fill="#ffffff"></rect></mask></defs></svg>